/* XPM */
static char *eurobit32[] = {
"32 32 125 2 0 0",
"   c #A5A5A5",
"!  c #5C5C5C",
"#  c #000000",
"$  c #515151",
"%  c #9C9C9C",
"&  c #949494",
"'  c #7A7A7A",
"(  c #ECECEC",
")  c #070707",
"*  c #2A2A2A",
"+  c #818181",
",  c #BFBFBF",
"-  c #D7D7D7",
".  c #D5D5D5",
"/  c #C8C8C8",
"0  c #868686",
"1  c #464646",
"2  c #E0E0E0",
"3  c #575757",
"4  c #7B7B7B",
"5  c #C3C3C3",
"6  c #E8E8E8",
"7  c #131313",
"8  c #ADADAD",
"9  c #141414",
":  c #202020",
";  c #050505",
"<  c #232323",
"=  c #020A0F",
">  c #ADB6C1",
"?  c #757575",
"@  c #929292",
"A  c #E9E9E9",
"B  c #3E3E3E",
"C  c #627A98",
"D  c #545454",
"E  c #3D3D3D",
"F  c #1B1B1B",
"G  c #333333",
"H  c #2F2F2F",
"I  c #313131",
"J  c #211F1D",
"K  c #A7A7A7",
"L  c #424242",
"M  c #8B8B8B",
"N  c #757B85",
"O  c #A9A9A9",
"P  c #878787",
"Q  c #3C3C3C",
"R  c #919191",
"S  c #7F7F7F",
"T  c #8A8A8A",
"U  c #222222",
"V  c #808080",
"W  c #3B2C14",
"X  c #7B7879",
"Y  c #2E2E2E",
"Z  c #272727",
"[  c #383838",
"]  c #0A0A0A",
"^  c #4F4F4F",
"_  c #A6A6A6",
"`  c #9F9FA0",
"a  c #989491",
"b  c #100E0B",
"c  c #141A29",
"d  c #474747",
"e  c #4C545D",
"f  c #E4E4E4",
"g  c #4B4B4B",
"h  c #616875",
"i  c #010101",
"j  c #404040",
"k  c #727576",
"l  c #2C2419",
"m  c #3D4E60",
"n  c #EAEAEA",
"o  c #88725A",
"p  c #B4B4B4",
"q  c #787878",
"r  c #888888",
"s  c #393939",
"t  c #020202",
"u  c #959595",
"v  c #262626",
"w  c #9DB3C0",
"x  c #C1C1C1",
"y  c #414141",
"z  c #838383",
"{  c #C9BCB4",
"|  c #B1C0CD",
"}  c #6B6B6B",
"~  c #DBDBDB",
" ! c #CECECE",
"!! c #CECFCF",
"#! c #D5D1CE",
"$! c #979796",
"%! c #AAAAAA",
"&! c #D0D0D0",
"'! c #66758B",
"(! c #171717",
")! c #353535",
"*! c #3F4E5D",
"+! c #717171",
",! c #5B5B5B",
"-! c #606060",
".! c #606061",
"/! c #5D5D5C",
"0! c #787D7F",
"1! c #7E8083",
"2! c #7C7C7C",
"3! c #E1E1E1",
"4! c #C7C7C7",
"5! c #D4D4D4",
"6! c #AFAFAF",
"7! c #B0B0B0",
"8! c #6E6E6E",
"9! c #BBBBBB",
":! c #060606",
";! c #AEAEAE",
"<! c #E5E5E5",
"=! c #777777",
">! c #737373",
"?! c #DADADA",
"@! c None",
"@!@!@!@!@!@!@!@!@!@!@!@!@!@!@!@!@!@!@!@!@!@!@!@!@!@!@!@!@!@!@!@!",
"@!@!@!@!@!@!@!@!@!@!@!@!@!@!@!@!@!@!@!@!@!@!@!@!@!@!@!@!@!@!@!@!",
"@!@!@!@!@!@!@!@!@!@!@!@!@!@!  ! # # # # # # $ % @!@!@!@!@!@!@!@!",
"@!@!@!@!@!@!@!@!@!@!@!@!& # # # # # # # # # # # # ' @!@!@!@!@!@!",
"@!@!@!@!@!@!@!@!@!@!( ) # # # * + , - . / 0 1 # # # # 2 @!@!@!@!",
"@!@!@!@!@!@!@!@!@!. # # # 3 @!@!@!@!@!@!@!@!@!@!4 # # # 5 @!@!@!",
"@!@!@!@!@!@!@!@!- # # # 6 @!@!@!@!@!@!@!@!@!@!@!@!@!7 # # 8 @!@!",
"@!@!@!@!@!@!@!@!# # 9 @!@!@!@!@!@!@!@!@!@!@!@!@!@!@!@!: # @!@!@!",
"@!@!@!@!@!@!@!; # # @!@!@!< # # # # # # # # # = > @!@!@!? @!@!@!",
"@!@!@!@!@!@!@ # # A @!@!@!B # # # # # # # # # # # C @!@!@!@!@!@!",
"@!@!@!@!@!@!# # D @!@!@!@!E # # F G H H I J # # # # @!@!@!@!@!@!",
"@!@!@!@!@!K # # @!@!@!@!@!L # # M @!@!@!@!@!@!# # # N @!@!@!@!@!",
"@!@!O ' P Q # ; R S S S T U # # V @!@!@!@!@!@!W # # X @!@!@!@!@!",
"@!@!# # # # # # # # # # # # # # 0 @!@!@!@!@!@!# # # @!@!@!@!@!@!",
"@!0 < Y B # # Z I H H H [ ] # # ^ _ % % ` a b # # c @!@!@!@!@!@!",
"@!@!@!@!@!# # 2 @!@!@!@!@!d # # # # # # # # # # e @!@!@!@!@!@!@!",
"@!@!@!@!@!# # f @!@!@!@!@!g # # # # # # # # # # # h @!@!@!@!@!@!",
"@!@!* # i # # # # # # # # # # # j P S S + k l # # # m @!@!@!@!@!",
"@!n # # # # # # # # # # # # # # P @!@!@!@!@!@!o # # # @!@!@!@!@!",
"@!p q V r s # t u V V V M v # # V @!@!@!@!@!@!@!# # # w @!@!@!@!",
"@!@!@!@!@!x # # @!@!@!@!@!y # # z @!@!@!@!@!@!{ # # # | @!@!@!@!",
"@!@!@!@!@!@!# # y @!@!@!@!E # # } ~  ! !!!#!$!# # # # @!@!@!@!@!",
"@!@!@!@!@!@!%!# # &!@!@!@!E # # # # # # # # # # # # '!@!@!@!@!@!",
"@!@!@!@!@!@!@!(!# # @!@!@!)!# # # # # # # # # # # *!@!@!+!@!@!@!",
"@!@!@!@!@!@!@!@!# # # @!@!V ,!-!-!-!-!-!.!/!0!1!@!@!@!# 2!@!@!@!",
"@!@!@!@!@!@!@!@!3!# # # 4!@!@!@!@!@!@!@!@!@!@!@!@! !# # 2!@!@!@!",
"@!@!@!@!@!@!@!@!@!@!# # # )!5!@!@!@!@!@!@!@!@!3!j # # # &!@!@!@!",
"@!@!@!@!@!@!@!@!@!@!@!< # # # # } 0 6!7!P 8!# # # # 9 @!@!@!@!@!",
"@!@!@!@!@!@!@!@!@!@!@!@!9!:!# # # # # # # # # # # ;!@!@!@!@!@!@!",
"@!@!@!@!@!@!@!@!@!@!@!@!@!@!<!=!Y # # # # * >!?!@!@!@!@!@!@!@!@!",
"@!@!@!@!@!@!@!@!@!@!@!@!@!@!@!@!@!@!@!@!@!@!@!@!@!@!@!@!@!@!@!@!",
"@!@!@!@!@!@!@!@!@!@!@!@!@!@!@!@!@!@!@!@!@!@!@!@!@!@!@!@!@!@!@!@!"
};
